M48
; DRILL file KiCad 10.0.3 date 2026-05-22T08:06:09
; FORMAT={-:-/ absolute / metric / decimal}
; #@! TF.CreationDate,2026-05-22T08:06:09+05:30
; #@! TF.GenerationSoftware,Kicad,Pcbnew,10.0.3
; #@! TF.FileFunction,Plated,1,2,PTH
FMAT,2
METRIC
; #@! TA.AperFunction,Plated,PTH,ViaDrill
T1C0.300
%
G90
G05
T1
X229.37Y-234.25
X230.666Y-234.176
X231.14Y-243.52
X232.55Y-234.37
X232.64Y-272.88
X234.48Y-265.53
X236.27Y-289.63
X237.05Y-327.53
X237.38Y-266.54
X238.77Y-271.82
X239.48Y-285.96
X242.14Y-246.58
X244.74Y-322.77
X245.94Y-249.39
X246.74Y-321.69
X247.06Y-301.67
X247.12Y-266.33
X247.47Y-246.52
X248.38Y-248.87
X248.5Y-269.5
X248.57Y-249.78
X248.98Y-285.62
X249.094Y-234.26
X249.33Y-244.31
X249.87Y-233.2
X250.23Y-288.75
X251.07Y-284.85
X251.91Y-234.05
X253.27Y-287.4
X253.41Y-233.46
X254.381Y-303.729
X255.13Y-273.14
X255.45Y-284.19
X255.58Y-254.22
X256.21Y-310.96
X256.23Y-306.23
X258.46Y-325.19
X258.62Y-262.38
X259.58Y-271.68
X260.16Y-270.81
X260.21Y-281.41
X260.45Y-284.51
X260.73Y-277.38
X260.75Y-267.7
X260.98Y-272.77
X261.09Y-247.19
X262.74Y-272.17
X265.24Y-287.05
X266.53Y-297.26
X268.02Y-246.44
X268.27Y-243.6
X268.44Y-322.5
X269.95Y-248.74
X270.16Y-246.44
X270.72Y-289.41
X270.73Y-302.22
X270.77Y-230.39
X271.08Y-266.68
X272.53Y-292.25
X273.31Y-267.03
X274.095Y-270.68
X274.6Y-306.5
X275.11Y-285.02
X275.33Y-287.6
X276.44Y-307.81
X277.78Y-285.16
X277.86Y-312.81
X278.82Y-269.62
X278.92Y-261.94
X279.07Y-250.88
X280.02Y-244.61
X280.3Y-246.88
X280.33Y-249.57
X280.42Y-267.53
X282.11Y-245.77
X282.42Y-273.51
X283.05Y-325.04
X283.22Y-249.13
X283.78Y-243.79
X283.98Y-244.82
X284.27Y-250.88
X284.41Y-282.08
X284.74Y-234.72
X284.82Y-249.28
X285.336Y-303.594
X285.6Y-243.98
X285.67Y-287.41
X286.68Y-307.81
X287.06Y-271.06
X287.13Y-251.52
X287.29Y-235.53
X287.3Y-306.25
X288.41Y-233.46
X288.9Y-246.59
X288.95Y-248.99
X289.96Y-234.08
X290.3Y-265.73
X291.95Y-291.58
X292.12Y-322.72
X292.3Y-268.16
X292.57Y-272.77
X295.21Y-306.31
X295.37Y-284.88
X295.68Y-250.47
X295.78Y-269.28
X296.07Y-267.32
X296.43Y-265.68
X296.93Y-284.28
X297.49Y-269.75
X298.6Y-283.93
X298.98Y-273.32
X299.07Y-246.97
X299.4Y-266.16
X299.77Y-287.44
X300.3Y-271.61
X300.97Y-274.32
X302.59Y-280.77
X304.24Y-303.92
X304.65Y-249.94
X305.59Y-245.77
X305.64Y-233.06
X306.38Y-306.19
X306.5Y-307.81
X307.37Y-242.76
X307.86Y-233.06
X307.9Y-268.88
X308.55Y-248.73
X308.99Y-265.91
X311.68Y-292.13
X312.27Y-267.55
X312.51Y-266.02
X313.2Y-268.73
X313.45Y-284.909
X313.85Y-269.73
X314.1Y-306.22
X317.25Y-252.74
X317.97Y-254.21
X317.97Y-266.14
X318.09Y-247.38
X318.22Y-289.39
X318.32Y-287.42
X318.55Y-284.309
X318.617Y-286.677
X319.55Y-283.72
X320.1Y-274.5
X320.23Y-249.29
X320.6Y-289.22
X320.79Y-283.07
X320.82Y-272.01
X321.51Y-287.8
X321.73Y-281.56
X322.001Y-285.549
X322.22Y-251.911
X322.34Y-248.58
X322.39Y-284.85
X322.97Y-249.6
X323.04Y-303.81
X323.44Y-246.35
X325.43Y-307.81
X325.59Y-306.41
X326.3Y-242.53
X326.55Y-269.11
X327.38Y-248.98
X328.11Y-265.78
X328.21Y-234.72
X330.85Y-291.35
X331.02Y-254.12
X331.69Y-267.95
X331.94Y-269.02
X332.82Y-305.81
X332.88Y-284.8
X333.27Y-266.35
X333.34Y-269.09
X334.85Y-284.88
X335.2Y-286.73
X336.01Y-261.62
X336.08Y-232.8
X336.46Y-269.75
X336.82Y-283.82
X337.33Y-246.8
X337.96Y-266.85
X338.25Y-289.0
X338.8Y-283.75
X339.12Y-249.62
X339.4Y-282.876
X339.74Y-287.68
X340.13Y-281.44
X340.57Y-232.8
X340.62Y-289.19
X341.73Y-273.43
X342.19Y-284.89
X342.191Y-303.809
X342.48Y-234.92
X342.55Y-286.9
X343.644Y-232.776
X344.26Y-306.21
X345.2Y-242.54
X345.459Y-233.4
X345.88Y-232.1
X346.75Y-230.79
X346.75Y-248.94
X346.8Y-309.01
X347.08Y-265.96
X347.93Y-271.3
X347.99Y-249.4
X349.45Y-268.15
X349.76Y-291.72
X351.48Y-307.81
X351.9Y-285.68
X351.91Y-233.46
X352.16Y-306.16
X352.25Y-235.46
X353.1Y-232.15
X353.13Y-234.53
X353.48Y-270.1
X354.21Y-325.03
X354.41Y-228.51
X354.9Y-225.01
X355.15Y-261.58
X355.87Y-289.41
X356.05Y-247.05
X356.49Y-273.43
X356.71Y-286.87
X356.73Y-267.75
X357.36Y-284.32
X358.23Y-272.83
X358.65Y-287.57
X359.37Y-228.96
X360.19Y-218.14
X360.33Y-251.82
X360.72Y-310.77
X360.91Y-231.27
X361.23Y-303.85
X361.36Y-286.9
X361.47Y-228.72
X361.48Y-227.45
X361.96Y-250.47
X362.54Y-223.53
X363.36Y-322.72
X363.39Y-306.08
X363.44Y-229.66
X363.56Y-250.06
X363.59Y-228.09
X363.95Y-307.81
X364.75Y-242.96
X365.75Y-248.88
X366.06Y-265.81
X366.78Y-228.12
X367.64Y-270.9
X368.53Y-251.72
X368.53Y-268.03
X368.64Y-231.98
X368.7Y-292.25
X368.77Y-229.64
X370.812Y-251.378
X370.98Y-284.98
X371.16Y-306.12
X372.93Y-250.68
X373.64Y-262.14
X374.97Y-269.74
X375.16Y-246.92
X375.72Y-268.19
X376.51Y-232.77
X376.81Y-287.35
X377.32Y-272.23
X377.58Y-284.29
X377.67Y-288.82
X377.97Y-226.5
X378.08Y-234.79
X378.11Y-222.83
X378.31Y-229.51
X378.31Y-280.39
X378.33Y-220.8
X378.77Y-225.64
X379.14Y-246.22
X379.29Y-287.52
X379.32Y-249.42
X379.91Y-244.29
X380.22Y-303.86
X380.63Y-286.9
X380.86Y-251.346
X380.97Y-243.36
X381.15Y-249.84
X381.7Y-236.13
X382.47Y-307.81
X382.5Y-306.25
X382.58Y-298.54
X382.73Y-282.35
X382.95Y-236.07
X384.02Y-248.68
X384.26Y-247.36
X384.54Y-223.49
X385.07Y-263.37
X385.15Y-234.58
X385.2Y-266.06
X385.35Y-245.88
X385.63Y-250.71
X385.72Y-232.5
X386.28Y-244.42
X386.45Y-229.6
X386.45Y-269.75
X387.51Y-268.39
X387.56Y-273.43
X388.01Y-292.03
X388.72Y-221.77
X389.43Y-266.1
X389.594Y-267.046
X389.62Y-270.51
X389.71Y-254.12
X389.85Y-285.64
X390.24Y-306.25
X391.26Y-253.34
X391.32Y-264.4
X391.95Y-267.32
X392.11Y-266.43
X392.38Y-269.74
X392.84Y-262.21
X393.29Y-221.58
X393.76Y-267.17
X394.06Y-269.41
X394.07Y-268.01
X394.12Y-247.52
X394.15Y-232.11
X394.97Y-222.61
X395.39Y-266.46
X396.63Y-251.32
X397.92Y-229.94
X398.79Y-249.65
X399.11Y-272.91
X399.2Y-248.17
X399.24Y-253.04
X399.38Y-303.71
X399.48Y-252.05
X399.97Y-286.95
X400.76Y-245.92
X400.78Y-248.81
X401.87Y-306.36
X402.8Y-270.35
X402.99Y-234.87
X403.03Y-273.31
X403.16Y-269.15
X403.89Y-265.9
X404.24Y-248.41
X404.46Y-246.76
X405.72Y-309.35
X407.35Y-299.66
X408.04Y-270.84
X408.16Y-307.81
X409.03Y-284.94
X409.38Y-306.08
X411.77Y-250.57
X412.44Y-261.89
X412.72Y-269.95
X413.56Y-267.61
X414.14Y-247.2
X415.9Y-271.91
X416.01Y-250.99
X417.15Y-250.33
X417.2Y-230.0
X417.81Y-249.06
X417.91Y-246.14
X418.31Y-286.72
X418.37Y-303.53
X419.1Y-225.82
X419.86Y-248.6
X419.96Y-246.52
X420.66Y-305.99
X420.8Y-249.4
X421.05Y-242.98
X421.154Y-251.3
X421.52Y-310.38
X422.57Y-324.87
X423.03Y-251.17
X423.13Y-265.72
X424.21Y-228.43
X425.28Y-244.15
X425.44Y-268.01
X425.69Y-299.91
X428.02Y-307.81
X428.04Y-306.04
X428.25Y-284.91
X428.47Y-263.04
X429.75Y-270.71
X429.99Y-291.55
X430.28Y-254.26
X431.01Y-262.96
X431.21Y-261.94
X432.0Y-284.86
X432.85Y-267.77
X432.86Y-322.88
X432.98Y-247.42
X433.0Y-287.9
X433.28Y-251.9
X433.7Y-269.91
X433.72Y-228.38
X433.77Y-283.01
X434.08Y-250.64
X434.08Y-274.12
X436.83Y-285.03
X436.99Y-303.96
X437.37Y-248.24
X437.88Y-286.9
X437.99Y-271.31
X438.17Y-244.03
X438.21Y-246.57
X438.97Y-245.17
X439.57Y-236.64
X439.63Y-306.01
X439.73Y-311.05
X441.09Y-242.92
X441.84Y-248.75
X442.03Y-265.9
X442.15Y-325.14
X443.0Y-246.99
X443.814Y-307.81
X444.07Y-269.75
X444.27Y-268.24
X444.28Y-292.21
X444.3Y-302.37
X445.86Y-261.69
X446.95Y-285.02
X446.96Y-305.96
X449.68Y-261.76
X450.05Y-250.39
X450.93Y-273.29
X452.03Y-322.77
X452.14Y-267.98
X452.16Y-246.95
X452.95Y-286.75
X453.5Y-274.32
X455.92Y-304.71
X456.84Y-246.74
X457.67Y-246.29
X457.75Y-234.29
X458.2Y-311.57
X458.37Y-306.36
X458.94Y-271.35
X459.53Y-243.17
X460.27Y-250.55
X461.09Y-246.81
X461.14Y-265.74
X461.31Y-248.45
X461.47Y-324.95
X461.89Y-307.72
X462.639Y-269.75
X463.151Y-267.541
X466.372Y-284.76
X467.42Y-254.94
X467.48Y-250.64
X467.49Y-301.01
X468.32Y-263.22
X469.83Y-292.15
X470.1Y-247.0
X470.63Y-323.05
X470.92Y-267.3
X472.96Y-306.08
X474.27Y-286.3
X478.61Y-310.98
X479.02Y-237.67
X479.42Y-234.25
X480.01Y-266.01
X480.5Y-324.85
X482.25Y-303.64
X482.62Y-268.24
X482.89Y-247.56
X484.86Y-306.2
X485.98Y-270.3
X486.19Y-236.94
X486.4Y-263.27
X486.67Y-246.87
X486.79Y-250.47
X489.44Y-248.62
X489.54Y-247.08
X489.92Y-322.79
X490.023Y-250.9
X490.26Y-262.5
X491.51Y-254.34
X491.9Y-269.7
X492.32Y-253.06
X493.98Y-300.8
X495.16Y-250.22
X496.93Y-291.86
X496.94Y-250.82
X497.1Y-284.84
X497.13Y-310.65
X497.33Y-269.66
X498.87Y-307.81
X499.23Y-246.8
X499.68Y-324.71
X500.37Y-306.41
X504.09Y-266.56
X504.86Y-288.26
X506.91Y-284.24
X508.16Y-283.4
X508.62Y-275.1
X508.96Y-322.99
X509.1Y-270.9
X509.11Y-267.28
X509.4Y-303.8
X509.86Y-250.68
X509.91Y-278.56
X511.4Y-306.19
X511.55Y-271.29
X511.56Y-249.57
X511.61Y-283.31
X512.28Y-267.61
X512.43Y-307.81
X512.48Y-247.65
X512.97Y-283.15
X513.38Y-321.48
X513.87Y-280.25
X514.05Y-249.74
X514.18Y-246.12
X514.74Y-288.9
X515.22Y-304.17
X515.55Y-273.49
X515.71Y-268.68
X515.86Y-291.83
X516.16Y-300.68
X516.5Y-326.66
X516.67Y-250.55
X517.3Y-264.51
X517.88Y-302.81
X518.03Y-266.33
X518.18Y-284.46
X518.28Y-248.96
X518.34Y-322.34
X518.34Y-325.06
X518.35Y-285.8
X518.37Y-306.1
X518.56Y-246.66
X519.08Y-267.79
X519.41Y-303.07
X519.46Y-270.92
X519.96Y-328.13
X527.57Y-269.47
X528.07Y-230.84
X528.1Y-265.93
X528.12Y-247.08
X528.18Y-285.68
X528.35Y-303.62
X529.01Y-326.79
X529.02Y-309.8
X529.53Y-250.63
X529.8Y-267.81
X530.06Y-246.44
X530.21Y-285.11
X530.35Y-306.38
X530.86Y-310.51
X532.49Y-309.43
M30
