%TF.GenerationSoftware,KiCad,Pcbnew,10.0.3*%
%TF.CreationDate,2026-05-24T23:07:02+05:30*%
%TF.ProjectId,kayboard,6b617962-6f61-4726-942e-6b696361645f,rev?*%
%TF.SameCoordinates,Original*%
%TF.FileFunction,Soldermask,Top*%
%TF.FilePolarity,Negative*%
%FSLAX46Y46*%
G04 Gerber Fmt 4.6, Leading zero omitted, Abs format (unit mm)*
G04 Created by KiCad (PCBNEW 10.0.3) date 2026-05-24 23:07:02*
%MOMM*%
%LPD*%
G01*
G04 APERTURE LIST*
G04 Aperture macros list*
%AMRoundRect*
0 Rectangle with rounded corners*
0 $1 Rounding radius*
0 $2 $3 $4 $5 $6 $7 $8 $9 X,Y pos of 4 corners*
0 Add a 4 corners polygon primitive as box body*
4,1,4,$2,$3,$4,$5,$6,$7,$8,$9,$2,$3,0*
0 Add four circle primitives for the rounded corners*
1,1,$1+$1,$2,$3*
1,1,$1+$1,$4,$5*
1,1,$1+$1,$6,$7*
1,1,$1+$1,$8,$9*
0 Add four rect primitives between the rounded corners*
20,1,$1+$1,$2,$3,$4,$5,0*
20,1,$1+$1,$4,$5,$6,$7,0*
20,1,$1+$1,$6,$7,$8,$9,0*
20,1,$1+$1,$8,$9,$2,$3,0*%
G04 Aperture macros list end*
%ADD10C,1.750000*%
%ADD11C,3.050000*%
%ADD12C,4.000000*%
%ADD13C,2.200000*%
%ADD14RoundRect,0.102000X-0.654000X-0.654000X0.654000X-0.654000X0.654000X0.654000X-0.654000X0.654000X0*%
%ADD15C,1.512000*%
%ADD16R,1.500000X1.500000*%
%ADD17C,1.600000*%
G04 APERTURE END LIST*
D10*
%TO.C,S63*%
X423545000Y-319087500D03*
D11*
X424815000Y-316547500D03*
D12*
X428625000Y-319087500D03*
D11*
X431165000Y-314007500D03*
D10*
X433705000Y-319087500D03*
%TD*%
%TO.C,S57*%
X499745000Y-300037500D03*
D11*
X501015000Y-297497500D03*
D12*
X504825000Y-300037500D03*
D11*
X507365000Y-294957500D03*
D10*
X509905000Y-300037500D03*
%TD*%
%TO.C,S6*%
X328295000Y-242887500D03*
D11*
X329565000Y-240347500D03*
D12*
X333375000Y-242887500D03*
D11*
X335915000Y-237807500D03*
D10*
X338455000Y-242887500D03*
%TD*%
%TO.C,S36*%
X342582500Y-280987500D03*
D11*
X343852500Y-278447500D03*
D12*
X347662500Y-280987500D03*
D11*
X350202500Y-275907500D03*
D10*
X352742500Y-280987500D03*
%TD*%
%TO.C,S45*%
X244951250Y-300037500D03*
D11*
X246221250Y-297497500D03*
D12*
X250031250Y-300037500D03*
D11*
X252571250Y-294957500D03*
D10*
X255111250Y-300037500D03*
%TD*%
%TO.C,S54*%
X428307500Y-300037500D03*
D11*
X429577500Y-297497500D03*
D12*
X433387500Y-300037500D03*
D11*
X435927500Y-294957500D03*
D10*
X438467500Y-300037500D03*
%TD*%
%TO.C,S34*%
X304482500Y-280987500D03*
D11*
X305752500Y-278447500D03*
D12*
X309562500Y-280987500D03*
D11*
X312102500Y-275907500D03*
D10*
X314642500Y-280987500D03*
%TD*%
%TO.C,S21*%
X337820000Y-261937500D03*
D11*
X339090000Y-259397500D03*
D12*
X342900000Y-261937500D03*
D11*
X345440000Y-256857500D03*
D10*
X347980000Y-261937500D03*
%TD*%
%TO.C,S44*%
X518795000Y-280987500D03*
D11*
X520065000Y-278447500D03*
D12*
X523875000Y-280987500D03*
D11*
X526415000Y-275907500D03*
D10*
X528955000Y-280987500D03*
%TD*%
%TO.C,S40*%
X418782500Y-280987500D03*
D11*
X420052500Y-278447500D03*
D12*
X423862500Y-280987500D03*
D11*
X426402500Y-275907500D03*
D10*
X428942500Y-280987500D03*
%TD*%
%TO.C,S13*%
X461645000Y-242887500D03*
D11*
X462915000Y-240347500D03*
D12*
X466725000Y-242887500D03*
D11*
X469265000Y-237807500D03*
D10*
X471805000Y-242887500D03*
%TD*%
%TO.C,S47*%
X294957500Y-300037500D03*
D11*
X296227500Y-297497500D03*
D12*
X300037500Y-300037500D03*
D11*
X302577500Y-294957500D03*
D10*
X305117500Y-300037500D03*
%TD*%
%TO.C,S52*%
X390207500Y-300037500D03*
D11*
X391477500Y-297497500D03*
D12*
X395287500Y-300037500D03*
D11*
X397827500Y-294957500D03*
D10*
X400367500Y-300037500D03*
%TD*%
%TO.C,S10*%
X404495000Y-242887500D03*
D11*
X405765000Y-240347500D03*
D12*
X409575000Y-242887500D03*
D11*
X412115000Y-237807500D03*
D10*
X414655000Y-242887500D03*
%TD*%
%TO.C,S51*%
X371157500Y-300037500D03*
D11*
X372427500Y-297497500D03*
D12*
X376237500Y-300037500D03*
D11*
X378777500Y-294957500D03*
D10*
X381317500Y-300037500D03*
%TD*%
%TO.C,S35*%
X323532500Y-280987500D03*
D11*
X324802500Y-278447500D03*
D12*
X328612500Y-280987500D03*
D11*
X331152500Y-275907500D03*
D10*
X333692500Y-280987500D03*
%TD*%
%TO.C,S33*%
X285432500Y-280987500D03*
D11*
X286702500Y-278447500D03*
D12*
X290512500Y-280987500D03*
D11*
X293052500Y-275907500D03*
D10*
X295592500Y-280987500D03*
%TD*%
%TO.C,S37*%
X361632500Y-280987500D03*
D11*
X362902500Y-278447500D03*
D12*
X366712500Y-280987500D03*
D11*
X369252500Y-275907500D03*
D10*
X371792500Y-280987500D03*
%TD*%
%TO.C,S61*%
X283051250Y-319087500D03*
D11*
X284321250Y-316547500D03*
D12*
X288131250Y-319087500D03*
D11*
X290671250Y-314007500D03*
D10*
X293211250Y-319087500D03*
%TD*%
%TO.C,S16*%
X237807500Y-261937500D03*
D11*
X239077500Y-259397500D03*
D12*
X242887500Y-261937500D03*
D11*
X245427500Y-256857500D03*
D10*
X247967500Y-261937500D03*
%TD*%
%TO.C,S23*%
X375920000Y-261937500D03*
D11*
X377190000Y-259397500D03*
D12*
X381000000Y-261937500D03*
D11*
X383540000Y-256857500D03*
D10*
X386080000Y-261937500D03*
%TD*%
%TO.C,S60*%
X259238750Y-319087500D03*
D11*
X260508750Y-316547500D03*
D12*
X264318750Y-319087500D03*
D11*
X266858750Y-314007500D03*
D10*
X269398750Y-319087500D03*
%TD*%
%TO.C,S18*%
X280670000Y-261937500D03*
D11*
X281940000Y-259397500D03*
D12*
X285750000Y-261937500D03*
D11*
X288290000Y-256857500D03*
D10*
X290830000Y-261937500D03*
%TD*%
%TO.C,S7*%
X347345000Y-242887500D03*
D11*
X348615000Y-240347500D03*
D12*
X352425000Y-242887500D03*
D11*
X354965000Y-237807500D03*
D10*
X357505000Y-242887500D03*
%TD*%
%TO.C,S2*%
X252095000Y-242887500D03*
D11*
X253365000Y-240347500D03*
D12*
X257175000Y-242887500D03*
D11*
X259715000Y-237807500D03*
D10*
X262255000Y-242887500D03*
%TD*%
%TO.C,S43*%
X487838750Y-280987500D03*
D11*
X489108750Y-278447500D03*
D12*
X492918750Y-280987500D03*
D11*
X495458750Y-275907500D03*
D10*
X497998750Y-280987500D03*
%TD*%
%TO.C,S50*%
X352107500Y-300037500D03*
D11*
X353377500Y-297497500D03*
D12*
X357187500Y-300037500D03*
D11*
X359727500Y-294957500D03*
D10*
X362267500Y-300037500D03*
%TD*%
%TO.C,S14*%
X490220000Y-242887500D03*
D11*
X491490000Y-240347500D03*
D12*
X495300000Y-242887500D03*
D11*
X497840000Y-237807500D03*
D10*
X500380000Y-242887500D03*
%TD*%
%TO.C,S3*%
X271145000Y-242887500D03*
D11*
X272415000Y-240347500D03*
D12*
X276225000Y-242887500D03*
D11*
X278765000Y-237807500D03*
D10*
X281305000Y-242887500D03*
%TD*%
%TO.C,S24*%
X394970000Y-261937500D03*
D11*
X396240000Y-259397500D03*
D12*
X400050000Y-261937500D03*
D11*
X402590000Y-256857500D03*
D10*
X405130000Y-261937500D03*
%TD*%
%TO.C,S39*%
X399732500Y-280987500D03*
D11*
X401002500Y-278447500D03*
D12*
X404812500Y-280987500D03*
D11*
X407352500Y-275907500D03*
D10*
X409892500Y-280987500D03*
%TD*%
%TO.C,S1*%
X233045000Y-242887500D03*
D11*
X234315000Y-240347500D03*
D12*
X238125000Y-242887500D03*
D11*
X240665000Y-237807500D03*
D10*
X243205000Y-242887500D03*
%TD*%
D13*
%TO.C,H4*%
X414750000Y-312400000D03*
%TD*%
D10*
%TO.C,S41*%
X437832500Y-280987500D03*
D11*
X439102500Y-278447500D03*
D12*
X442912500Y-280987500D03*
D11*
X445452500Y-275907500D03*
D10*
X447992500Y-280987500D03*
%TD*%
%TO.C,S49*%
X333057500Y-300037500D03*
D11*
X334327500Y-297497500D03*
D12*
X338137500Y-300037500D03*
D11*
X340677500Y-294957500D03*
D10*
X343217500Y-300037500D03*
%TD*%
%TO.C,S15*%
X518795000Y-242887500D03*
D11*
X520065000Y-240347500D03*
D12*
X523875000Y-242887500D03*
D11*
X526415000Y-237807500D03*
D10*
X528955000Y-242887500D03*
%TD*%
%TO.C,S30*%
X518795000Y-261937500D03*
D11*
X520065000Y-259397500D03*
D12*
X523875000Y-261937500D03*
D11*
X526415000Y-256857500D03*
D10*
X528955000Y-261937500D03*
%TD*%
D13*
%TO.C,H1*%
X231710000Y-217350000D03*
%TD*%
D10*
%TO.C,S4*%
X290195000Y-242887500D03*
D11*
X291465000Y-240347500D03*
D12*
X295275000Y-242887500D03*
D11*
X297815000Y-237807500D03*
D10*
X300355000Y-242887500D03*
%TD*%
%TO.C,S25*%
X414020000Y-261937500D03*
D11*
X415290000Y-259397500D03*
D12*
X419100000Y-261937500D03*
D11*
X421640000Y-256857500D03*
D10*
X424180000Y-261937500D03*
%TD*%
%TO.C,S66*%
X480695000Y-319087500D03*
D11*
X481965000Y-316547500D03*
D12*
X485775000Y-319087500D03*
D11*
X488315000Y-314007500D03*
D10*
X490855000Y-319087500D03*
%TD*%
%TO.C,S64*%
X442595000Y-319087500D03*
D11*
X443865000Y-316547500D03*
D12*
X447675000Y-319087500D03*
D11*
X450215000Y-314007500D03*
D10*
X452755000Y-319087500D03*
%TD*%
%TO.C,S20*%
X318770000Y-261937500D03*
D11*
X320040000Y-259397500D03*
D12*
X323850000Y-261937500D03*
D11*
X326390000Y-256857500D03*
D10*
X328930000Y-261937500D03*
%TD*%
%TO.C,S65*%
X461645000Y-319087500D03*
D11*
X462915000Y-316547500D03*
D12*
X466725000Y-319087500D03*
D11*
X469265000Y-314007500D03*
D10*
X471805000Y-319087500D03*
%TD*%
%TO.C,S56*%
X473551250Y-300037500D03*
D11*
X474821250Y-297497500D03*
D12*
X478631250Y-300037500D03*
D11*
X481171250Y-294957500D03*
D10*
X483711250Y-300037500D03*
%TD*%
%TO.C,S8*%
X366395000Y-242887500D03*
D11*
X367665000Y-240347500D03*
D12*
X371475000Y-242887500D03*
D11*
X374015000Y-237807500D03*
D10*
X376555000Y-242887500D03*
%TD*%
%TO.C,S38*%
X380682500Y-280987500D03*
D11*
X381952500Y-278447500D03*
D12*
X385762500Y-280987500D03*
D11*
X388302500Y-275907500D03*
D10*
X390842500Y-280987500D03*
%TD*%
%TO.C,S62*%
X354488750Y-319087500D03*
D11*
X355758750Y-316547500D03*
D12*
X359568750Y-319087500D03*
D11*
X362108750Y-314007500D03*
D10*
X364648750Y-319087500D03*
%TD*%
%TO.C,S11*%
X423545000Y-242887500D03*
D11*
X424815000Y-240347500D03*
D12*
X428625000Y-242887500D03*
D11*
X431165000Y-237807500D03*
D10*
X433705000Y-242887500D03*
%TD*%
%TO.C,S55*%
X447357500Y-300037500D03*
D11*
X448627500Y-297497500D03*
D12*
X452437500Y-300037500D03*
D11*
X454977500Y-294957500D03*
D10*
X457517500Y-300037500D03*
%TD*%
%TO.C,S5*%
X309245000Y-242887500D03*
D11*
X310515000Y-240347500D03*
D12*
X314325000Y-242887500D03*
D11*
X316865000Y-237807500D03*
D10*
X319405000Y-242887500D03*
%TD*%
%TO.C,S48*%
X314007500Y-300037500D03*
D11*
X315277500Y-297497500D03*
D12*
X319087500Y-300037500D03*
D11*
X321627500Y-294957500D03*
D10*
X324167500Y-300037500D03*
%TD*%
%TO.C,S19*%
X299720000Y-261937500D03*
D11*
X300990000Y-259397500D03*
D12*
X304800000Y-261937500D03*
D11*
X307340000Y-256857500D03*
D10*
X309880000Y-261937500D03*
%TD*%
%TO.C,S17*%
X261620000Y-261937500D03*
D11*
X262890000Y-259397500D03*
D12*
X266700000Y-261937500D03*
D11*
X269240000Y-256857500D03*
D10*
X271780000Y-261937500D03*
%TD*%
%TO.C,S12*%
X442595000Y-242887500D03*
D11*
X443865000Y-240347500D03*
D12*
X447675000Y-242887500D03*
D11*
X450215000Y-237807500D03*
D10*
X452755000Y-242887500D03*
%TD*%
D13*
%TO.C,H3*%
X231750000Y-294040000D03*
%TD*%
D10*
%TO.C,S31*%
X240188750Y-280987500D03*
D11*
X241458750Y-278447500D03*
D12*
X245268750Y-280987500D03*
D11*
X247808750Y-275907500D03*
D10*
X250348750Y-280987500D03*
%TD*%
%TO.C,S29*%
X494982500Y-261937500D03*
D11*
X496252500Y-259397500D03*
D12*
X500062500Y-261937500D03*
D11*
X502602500Y-256857500D03*
D10*
X505142500Y-261937500D03*
%TD*%
%TO.C,S22*%
X356870000Y-261937500D03*
D11*
X358140000Y-259397500D03*
D12*
X361950000Y-261937500D03*
D11*
X364490000Y-256857500D03*
D10*
X367030000Y-261937500D03*
%TD*%
%TO.C,S67*%
X499745000Y-319087500D03*
D11*
X501015000Y-316547500D03*
D12*
X504825000Y-319087500D03*
D11*
X507365000Y-314007500D03*
D10*
X509905000Y-319087500D03*
%TD*%
%TO.C,S32*%
X266382500Y-280987500D03*
D11*
X267652500Y-278447500D03*
D12*
X271462500Y-280987500D03*
D11*
X274002500Y-275907500D03*
D10*
X276542500Y-280987500D03*
%TD*%
%TO.C,S27*%
X452120000Y-261937500D03*
D11*
X453390000Y-259397500D03*
D12*
X457200000Y-261937500D03*
D11*
X459740000Y-256857500D03*
D10*
X462280000Y-261937500D03*
%TD*%
%TO.C,S28*%
X471170000Y-261937500D03*
D11*
X472440000Y-259397500D03*
D12*
X476250000Y-261937500D03*
D11*
X478790000Y-256857500D03*
D10*
X481330000Y-261937500D03*
%TD*%
D13*
%TO.C,H2*%
X529980000Y-217260000D03*
%TD*%
D10*
%TO.C,S42*%
X456882500Y-280987500D03*
D11*
X458152500Y-278447500D03*
D12*
X461962500Y-280987500D03*
D11*
X464502500Y-275907500D03*
D10*
X467042500Y-280987500D03*
%TD*%
%TO.C,S26*%
X433070000Y-261937500D03*
D11*
X434340000Y-259397500D03*
D12*
X438150000Y-261937500D03*
D11*
X440690000Y-256857500D03*
D10*
X443230000Y-261937500D03*
%TD*%
%TO.C,S53*%
X409257500Y-300037500D03*
D11*
X410527500Y-297497500D03*
D12*
X414337500Y-300037500D03*
D11*
X416877500Y-294957500D03*
D10*
X419417500Y-300037500D03*
%TD*%
%TO.C,S59*%
X235426250Y-319087500D03*
D11*
X236696250Y-316547500D03*
D12*
X240506250Y-319087500D03*
D11*
X243046250Y-314007500D03*
D10*
X245586250Y-319087500D03*
%TD*%
%TO.C,S68*%
X518795000Y-319087500D03*
D11*
X520065000Y-316547500D03*
D12*
X523875000Y-319087500D03*
D11*
X526415000Y-314007500D03*
D10*
X528955000Y-319087500D03*
%TD*%
%TO.C,S46*%
X275907500Y-300037500D03*
D11*
X277177500Y-297497500D03*
D12*
X280987500Y-300037500D03*
D11*
X283527500Y-294957500D03*
D10*
X286067500Y-300037500D03*
%TD*%
%TO.C,S58*%
X518795000Y-300037500D03*
D11*
X520065000Y-297497500D03*
D12*
X523875000Y-300037500D03*
D11*
X526415000Y-294957500D03*
D10*
X528955000Y-300037500D03*
%TD*%
%TO.C,S9*%
X385445000Y-242887500D03*
D11*
X386715000Y-240347500D03*
D12*
X390525000Y-242887500D03*
D11*
X393065000Y-237807500D03*
D10*
X395605000Y-242887500D03*
%TD*%
D14*
%TO.C,J2*%
X350870000Y-219740000D03*
D15*
X348870000Y-219740000D03*
%TD*%
D16*
%TO.C,SW1*%
X339720000Y-216470000D03*
D17*
X337180000Y-216470000D03*
X342260000Y-216470000D03*
%TD*%
M02*
