%TF.GenerationSoftware,KiCad,Pcbnew,10.0.3*%
%TF.CreationDate,2026-05-24T23:07:02+05:30*%
%TF.ProjectId,kayboard,6b617962-6f61-4726-942e-6b696361645f,rev?*%
%TF.SameCoordinates,Original*%
%TF.FileFunction,Paste,Bot*%
%TF.FilePolarity,Positive*%
%FSLAX46Y46*%
G04 Gerber Fmt 4.6, Leading zero omitted, Abs format (unit mm)*
G04 Created by KiCad (PCBNEW 10.0.3) date 2026-05-24 23:07:02*
%MOMM*%
%LPD*%
G01*
G04 APERTURE LIST*
G04 Aperture macros list*
%AMRoundRect*
0 Rectangle with rounded corners*
0 $1 Rounding radius*
0 $2 $3 $4 $5 $6 $7 $8 $9 X,Y pos of 4 corners*
0 Add a 4 corners polygon primitive as box body*
4,1,4,$2,$3,$4,$5,$6,$7,$8,$9,$2,$3,0*
0 Add four circle primitives for the rounded corners*
1,1,$1+$1,$2,$3*
1,1,$1+$1,$4,$5*
1,1,$1+$1,$6,$7*
1,1,$1+$1,$8,$9*
0 Add four rect primitives between the rounded corners*
20,1,$1+$1,$2,$3,$4,$5,0*
20,1,$1+$1,$4,$5,$6,$7,0*
20,1,$1+$1,$6,$7,$8,$9,0*
20,1,$1+$1,$8,$9,$2,$3,0*%
%AMFreePoly0*
4,1,15,-0.616000,0.142500,-0.283500,0.475000,0.521000,0.475000,0.557355,0.467769,0.588175,0.447175,0.608769,0.416355,0.616000,0.380000,0.616000,-0.380000,0.608769,-0.416355,0.588175,-0.447175,0.557355,-0.467769,0.521000,-0.475000,-0.283500,-0.475000,-0.616000,-0.142500,-0.616000,0.142500,-0.616000,0.142500,$1*%
G04 Aperture macros list end*
%ADD10RoundRect,0.250000X-1.025000X-1.000000X1.025000X-1.000000X1.025000X1.000000X-1.025000X1.000000X0*%
%ADD11RoundRect,0.140000X0.170000X-0.140000X0.170000X0.140000X-0.170000X0.140000X-0.170000X-0.140000X0*%
%ADD12RoundRect,0.225000X0.375000X-0.225000X0.375000X0.225000X-0.375000X0.225000X-0.375000X-0.225000X0*%
%ADD13RoundRect,0.095000X-0.921000X-0.380000X0.921000X-0.380000X0.921000X0.380000X-0.921000X0.380000X0*%
%ADD14RoundRect,0.095000X0.921000X0.380000X-0.921000X0.380000X-0.921000X-0.380000X0.921000X-0.380000X0*%
%ADD15FreePoly0,0.000000*%
%ADD16FreePoly0,180.000000*%
%ADD17C,1.700000*%
%ADD18RoundRect,0.110000X-0.440000X1.140000X-0.440000X-1.140000X0.440000X-1.140000X0.440000X1.140000X0*%
%ADD19RoundRect,0.205000X-0.470000X-0.205000X0.470000X-0.205000X0.470000X0.205000X-0.470000X0.205000X0*%
%ADD20RoundRect,0.225000X-0.225000X-0.375000X0.225000X-0.375000X0.225000X0.375000X-0.225000X0.375000X0*%
%ADD21RoundRect,0.079500X-0.100500X0.079500X-0.100500X-0.079500X0.100500X-0.079500X0.100500X0.079500X0*%
%ADD22RoundRect,0.150000X-0.150000X0.587500X-0.150000X-0.587500X0.150000X-0.587500X0.150000X0.587500X0*%
G04 APERTURE END LIST*
D10*
%TO.C,S63*%
X421540000Y-316547500D03*
X434467000Y-314007500D03*
%TD*%
%TO.C,S57*%
X497740000Y-297497500D03*
X510667000Y-294957500D03*
%TD*%
%TO.C,S6*%
X326290000Y-240347500D03*
X339217000Y-237807500D03*
%TD*%
%TO.C,S36*%
X340577500Y-278447500D03*
X353504500Y-275907500D03*
%TD*%
%TO.C,S45*%
X242946250Y-297497500D03*
X255873250Y-294957500D03*
%TD*%
%TO.C,S54*%
X426302500Y-297497500D03*
X439229500Y-294957500D03*
%TD*%
%TO.C,S34*%
X302477500Y-278447500D03*
X315404500Y-275907500D03*
%TD*%
%TO.C,S21*%
X335815000Y-259397500D03*
X348742000Y-256857500D03*
%TD*%
%TO.C,S44*%
X516790000Y-278447500D03*
X529717000Y-275907500D03*
%TD*%
%TO.C,S40*%
X416777500Y-278447500D03*
X429704500Y-275907500D03*
%TD*%
%TO.C,S13*%
X459640000Y-240347500D03*
X472567000Y-237807500D03*
%TD*%
%TO.C,S47*%
X292952500Y-297497500D03*
X305879500Y-294957500D03*
%TD*%
%TO.C,S52*%
X388202500Y-297497500D03*
X401129500Y-294957500D03*
%TD*%
%TO.C,S10*%
X402490000Y-240347500D03*
X415417000Y-237807500D03*
%TD*%
%TO.C,S51*%
X369152500Y-297497500D03*
X382079500Y-294957500D03*
%TD*%
%TO.C,S35*%
X321527500Y-278447500D03*
X334454500Y-275907500D03*
%TD*%
%TO.C,S33*%
X283427500Y-278447500D03*
X296354500Y-275907500D03*
%TD*%
%TO.C,S37*%
X359627500Y-278447500D03*
X372554500Y-275907500D03*
%TD*%
%TO.C,S61*%
X281046250Y-316547500D03*
X293973250Y-314007500D03*
%TD*%
%TO.C,S16*%
X235802500Y-259397500D03*
X248729500Y-256857500D03*
%TD*%
%TO.C,S23*%
X373915000Y-259397500D03*
X386842000Y-256857500D03*
%TD*%
%TO.C,S60*%
X257233750Y-316547500D03*
X270160750Y-314007500D03*
%TD*%
%TO.C,S18*%
X278665000Y-259397500D03*
X291592000Y-256857500D03*
%TD*%
%TO.C,S7*%
X345340000Y-240347500D03*
X358267000Y-237807500D03*
%TD*%
%TO.C,S2*%
X250090000Y-240347500D03*
X263017000Y-237807500D03*
%TD*%
%TO.C,S43*%
X485833750Y-278447500D03*
X498760750Y-275907500D03*
%TD*%
%TO.C,S50*%
X350102500Y-297497500D03*
X363029500Y-294957500D03*
%TD*%
%TO.C,S14*%
X488215000Y-240347500D03*
X501142000Y-237807500D03*
%TD*%
%TO.C,S3*%
X269140000Y-240347500D03*
X282067000Y-237807500D03*
%TD*%
%TO.C,S24*%
X392965000Y-259397500D03*
X405892000Y-256857500D03*
%TD*%
%TO.C,S39*%
X397727500Y-278447500D03*
X410654500Y-275907500D03*
%TD*%
%TO.C,S1*%
X231040000Y-240347500D03*
X243967000Y-237807500D03*
%TD*%
%TO.C,S41*%
X435827500Y-278447500D03*
X448754500Y-275907500D03*
%TD*%
%TO.C,S49*%
X331052500Y-297497500D03*
X343979500Y-294957500D03*
%TD*%
%TO.C,S15*%
X516790000Y-240347500D03*
X529717000Y-237807500D03*
%TD*%
%TO.C,S30*%
X516790000Y-259397500D03*
X529717000Y-256857500D03*
%TD*%
%TO.C,S4*%
X288190000Y-240347500D03*
X301117000Y-237807500D03*
%TD*%
%TO.C,S25*%
X412015000Y-259397500D03*
X424942000Y-256857500D03*
%TD*%
%TO.C,S66*%
X478690000Y-316547500D03*
X491617000Y-314007500D03*
%TD*%
%TO.C,S64*%
X440590000Y-316547500D03*
X453517000Y-314007500D03*
%TD*%
%TO.C,S20*%
X316765000Y-259397500D03*
X329692000Y-256857500D03*
%TD*%
%TO.C,S65*%
X459640000Y-316547500D03*
X472567000Y-314007500D03*
%TD*%
%TO.C,S56*%
X471546250Y-297497500D03*
X484473250Y-294957500D03*
%TD*%
%TO.C,S8*%
X364390000Y-240347500D03*
X377317000Y-237807500D03*
%TD*%
%TO.C,S38*%
X378677500Y-278447500D03*
X391604500Y-275907500D03*
%TD*%
%TO.C,S62*%
X352483750Y-316547500D03*
X365410750Y-314007500D03*
%TD*%
%TO.C,S11*%
X421540000Y-240347500D03*
X434467000Y-237807500D03*
%TD*%
%TO.C,S55*%
X445352500Y-297497500D03*
X458279500Y-294957500D03*
%TD*%
%TO.C,S5*%
X307240000Y-240347500D03*
X320167000Y-237807500D03*
%TD*%
%TO.C,S48*%
X312002500Y-297497500D03*
X324929500Y-294957500D03*
%TD*%
%TO.C,S19*%
X297715000Y-259397500D03*
X310642000Y-256857500D03*
%TD*%
%TO.C,S17*%
X259615000Y-259397500D03*
X272542000Y-256857500D03*
%TD*%
%TO.C,S12*%
X440590000Y-240347500D03*
X453517000Y-237807500D03*
%TD*%
%TO.C,S31*%
X238183750Y-278447500D03*
X251110750Y-275907500D03*
%TD*%
%TO.C,S29*%
X492977500Y-259397500D03*
X505904500Y-256857500D03*
%TD*%
%TO.C,S22*%
X354865000Y-259397500D03*
X367792000Y-256857500D03*
%TD*%
%TO.C,S67*%
X497740000Y-316547500D03*
X510667000Y-314007500D03*
%TD*%
%TO.C,S32*%
X264377500Y-278447500D03*
X277304500Y-275907500D03*
%TD*%
%TO.C,S27*%
X450115000Y-259397500D03*
X463042000Y-256857500D03*
%TD*%
%TO.C,S28*%
X469165000Y-259397500D03*
X482092000Y-256857500D03*
%TD*%
%TO.C,S42*%
X454877500Y-278447500D03*
X467804500Y-275907500D03*
%TD*%
%TO.C,S26*%
X431065000Y-259397500D03*
X443992000Y-256857500D03*
%TD*%
%TO.C,S53*%
X407252500Y-297497500D03*
X420179500Y-294957500D03*
%TD*%
%TO.C,S59*%
X233421250Y-316547500D03*
X246348250Y-314007500D03*
%TD*%
%TO.C,S68*%
X516790000Y-316547500D03*
X529717000Y-314007500D03*
%TD*%
%TO.C,S46*%
X273902500Y-297497500D03*
X286829500Y-294957500D03*
%TD*%
%TO.C,S58*%
X516790000Y-297497500D03*
X529717000Y-294957500D03*
%TD*%
%TO.C,S9*%
X383440000Y-240347500D03*
X396367000Y-237807500D03*
%TD*%
D11*
%TO.C,C33*%
X296050000Y-286530000D03*
X296050000Y-285570000D03*
%TD*%
D12*
%TO.C,D28*%
X485640000Y-260627500D03*
X485640000Y-257327500D03*
%TD*%
%TO.C,D10*%
X418820000Y-242090000D03*
X418820000Y-238790000D03*
%TD*%
D13*
%TO.C,U1*%
X374560000Y-217430000D03*
X374560000Y-219970000D03*
X374560000Y-222510000D03*
X374560000Y-225050000D03*
X374560000Y-227590000D03*
X374560000Y-230130000D03*
X374560000Y-232670000D03*
D14*
X358050000Y-232670000D03*
X358050000Y-230130000D03*
X358050000Y-227590000D03*
X358050000Y-225050000D03*
X358050000Y-222510000D03*
X358050000Y-219970000D03*
X358050000Y-217430000D03*
D15*
X374960000Y-218700000D03*
X374960000Y-221240000D03*
X374960000Y-223780000D03*
X374960000Y-226320000D03*
X374960000Y-228860000D03*
X374960000Y-231400000D03*
D16*
X357650000Y-231400000D03*
X357650000Y-228860000D03*
X357650000Y-226320000D03*
D17*
X367575000Y-216477500D03*
X365035000Y-216477500D03*
X367575000Y-219017500D03*
X365035000Y-219017500D03*
D18*
X367298988Y-230567823D03*
X365298988Y-230567823D03*
%TD*%
D19*
%TO.C,D116*%
X449655000Y-304500000D03*
X449655000Y-306000000D03*
X455105000Y-306000000D03*
X455105000Y-304500000D03*
%TD*%
%TO.C,D120*%
X373555000Y-304500000D03*
X373555000Y-306000000D03*
X379005000Y-306000000D03*
X379005000Y-304500000D03*
%TD*%
%TO.C,D87*%
X454325000Y-266300000D03*
X454325000Y-267800000D03*
X459775000Y-267800000D03*
X459775000Y-266300000D03*
%TD*%
D11*
%TO.C,C22*%
X405050000Y-267530000D03*
X405050000Y-266570000D03*
%TD*%
%TO.C,C42*%
X467050000Y-286530000D03*
X467050000Y-285570000D03*
%TD*%
D12*
%TO.C,D33*%
X299820000Y-279737500D03*
X299820000Y-276437500D03*
%TD*%
D20*
%TO.C,D30*%
X522992500Y-270350000D03*
X526292500Y-270350000D03*
%TD*%
D12*
%TO.C,D41*%
X452360000Y-279100000D03*
X452360000Y-275800000D03*
%TD*%
%TO.C,D25*%
X428340000Y-260440000D03*
X428340000Y-257140000D03*
%TD*%
D19*
%TO.C,D91*%
X378325000Y-266300000D03*
X378325000Y-267800000D03*
X383775000Y-267800000D03*
X383775000Y-266300000D03*
%TD*%
D11*
%TO.C,C8*%
X376050000Y-248530000D03*
X376050000Y-247570000D03*
%TD*%
D12*
%TO.C,D43*%
X503260000Y-280300000D03*
X503260000Y-277000000D03*
%TD*%
D19*
%TO.C,D102*%
X306835000Y-285350000D03*
X306835000Y-286850000D03*
X312285000Y-286850000D03*
X312285000Y-285350000D03*
%TD*%
D11*
%TO.C,C3*%
X281050000Y-248530000D03*
X281050000Y-247570000D03*
%TD*%
D19*
%TO.C,D71*%
X273325000Y-247300000D03*
X273325000Y-248800000D03*
X278775000Y-248800000D03*
X278775000Y-247300000D03*
%TD*%
D11*
%TO.C,C67*%
X510050000Y-324530000D03*
X510050000Y-323570000D03*
%TD*%
D19*
%TO.C,D130*%
X356755000Y-323430000D03*
X356755000Y-324930000D03*
X362205000Y-324930000D03*
X362205000Y-323430000D03*
%TD*%
%TO.C,D132*%
X445115000Y-323410000D03*
X445115000Y-324910000D03*
X450565000Y-324910000D03*
X450565000Y-323410000D03*
%TD*%
%TO.C,D77*%
X387325000Y-247300000D03*
X387325000Y-248800000D03*
X392775000Y-248800000D03*
X392775000Y-247300000D03*
%TD*%
%TO.C,D121*%
X354465000Y-304510000D03*
X354465000Y-306010000D03*
X359915000Y-306010000D03*
X359915000Y-304510000D03*
%TD*%
D21*
%TO.C,R1*%
X386740000Y-230935000D03*
X386740000Y-231625000D03*
%TD*%
D12*
%TO.C,D11*%
X437850000Y-241157500D03*
X437850000Y-237857500D03*
%TD*%
%TO.C,D66*%
X495090000Y-317337500D03*
X495090000Y-314037500D03*
%TD*%
D19*
%TO.C,D103*%
X325795000Y-285420000D03*
X325795000Y-286920000D03*
X331245000Y-286920000D03*
X331245000Y-285420000D03*
%TD*%
%TO.C,D76*%
X368325000Y-247300000D03*
X368325000Y-248800000D03*
X373775000Y-248800000D03*
X373775000Y-247300000D03*
%TD*%
D12*
%TO.C,D36*%
X357010000Y-280017500D03*
X357010000Y-276717500D03*
%TD*%
D11*
%TO.C,C5*%
X319050000Y-248530000D03*
X319050000Y-247570000D03*
%TD*%
D20*
%TO.C,D68*%
X522410000Y-327420000D03*
X525710000Y-327420000D03*
%TD*%
D11*
%TO.C,C34*%
X314050000Y-287010000D03*
X314050000Y-286050000D03*
%TD*%
%TO.C,C38*%
X391050000Y-286530000D03*
X391050000Y-285570000D03*
%TD*%
D20*
%TO.C,D15*%
X522902500Y-251350000D03*
X526202500Y-251350000D03*
%TD*%
D12*
%TO.C,D65*%
X476070000Y-317530000D03*
X476070000Y-314230000D03*
%TD*%
D19*
%TO.C,D131*%
X426140000Y-323340000D03*
X426140000Y-324840000D03*
X431590000Y-324840000D03*
X431590000Y-323340000D03*
%TD*%
D11*
%TO.C,C7*%
X357050000Y-248530000D03*
X357050000Y-247570000D03*
%TD*%
D12*
%TO.C,D46*%
X290310000Y-297950000D03*
X290310000Y-294650000D03*
%TD*%
D19*
%TO.C,D123*%
X316275000Y-304400000D03*
X316275000Y-305900000D03*
X321725000Y-305900000D03*
X321725000Y-304400000D03*
%TD*%
D11*
%TO.C,C17*%
X505050000Y-267530000D03*
X505050000Y-266570000D03*
%TD*%
D12*
%TO.C,D29*%
X510290000Y-260357500D03*
X510290000Y-257057500D03*
%TD*%
D11*
%TO.C,C9*%
X395050000Y-248530000D03*
X395050000Y-247570000D03*
%TD*%
D19*
%TO.C,D75*%
X349325000Y-247300000D03*
X349325000Y-248800000D03*
X354775000Y-248800000D03*
X354775000Y-247300000D03*
%TD*%
D12*
%TO.C,D39*%
X414200000Y-278780000D03*
X414200000Y-275480000D03*
%TD*%
D11*
%TO.C,C66*%
X491050000Y-324530000D03*
X491050000Y-323570000D03*
%TD*%
%TO.C,C12*%
X453050000Y-248530000D03*
X453050000Y-247570000D03*
%TD*%
%TO.C,C20*%
X443050000Y-267530000D03*
X443050000Y-266570000D03*
%TD*%
%TO.C,C54*%
X362050000Y-305530000D03*
X362050000Y-304570000D03*
%TD*%
D19*
%TO.C,D119*%
X392595000Y-304410000D03*
X392595000Y-305910000D03*
X398045000Y-305910000D03*
X398045000Y-304410000D03*
%TD*%
%TO.C,D85*%
X497325000Y-266300000D03*
X497325000Y-267800000D03*
X502775000Y-267800000D03*
X502775000Y-266300000D03*
%TD*%
D11*
%TO.C,C4*%
X300050000Y-248530000D03*
X300050000Y-247570000D03*
%TD*%
D19*
%TO.C,D109*%
X440065000Y-285340000D03*
X440065000Y-286840000D03*
X445515000Y-286840000D03*
X445515000Y-285340000D03*
%TD*%
D11*
%TO.C,C39*%
X410050000Y-286530000D03*
X410050000Y-285570000D03*
%TD*%
D12*
%TO.C,D12*%
X457090000Y-242477500D03*
X457090000Y-239177500D03*
%TD*%
D19*
%TO.C,D135*%
X502165000Y-323480000D03*
X502165000Y-324980000D03*
X507615000Y-324980000D03*
X507615000Y-323480000D03*
%TD*%
D11*
%TO.C,C1*%
X243050000Y-248530000D03*
X243050000Y-247570000D03*
%TD*%
D19*
%TO.C,D98*%
X240325000Y-266300000D03*
X240325000Y-267800000D03*
X245775000Y-267800000D03*
X245775000Y-266300000D03*
%TD*%
D12*
%TO.C,D22*%
X371270000Y-261150000D03*
X371270000Y-257850000D03*
%TD*%
D11*
%TO.C,C26*%
X329050000Y-267530000D03*
X329050000Y-266570000D03*
%TD*%
D12*
%TO.C,D35*%
X337840000Y-280467500D03*
X337840000Y-277167500D03*
%TD*%
D19*
%TO.C,D110*%
X459605000Y-285410000D03*
X459605000Y-286910000D03*
X465055000Y-286910000D03*
X465055000Y-285410000D03*
%TD*%
D11*
%TO.C,C59*%
X255050000Y-306010000D03*
X255050000Y-305050000D03*
%TD*%
D12*
%TO.C,D16*%
X252640000Y-260537500D03*
X252640000Y-257237500D03*
%TD*%
D19*
%TO.C,D134*%
X483255000Y-323500000D03*
X483255000Y-325000000D03*
X488705000Y-325000000D03*
X488705000Y-323500000D03*
%TD*%
D11*
%TO.C,C37*%
X372050000Y-286530000D03*
X372050000Y-285570000D03*
%TD*%
D12*
%TO.C,D49*%
X347700000Y-298230000D03*
X347700000Y-294930000D03*
%TD*%
%TO.C,D52*%
X404640000Y-298510000D03*
X404640000Y-295210000D03*
%TD*%
%TO.C,D19*%
X314310000Y-261280000D03*
X314310000Y-257980000D03*
%TD*%
D11*
%TO.C,C46*%
X529050000Y-305530000D03*
X529050000Y-304570000D03*
%TD*%
%TO.C,C50*%
X438050000Y-305530000D03*
X438050000Y-304570000D03*
%TD*%
D12*
%TO.C,D4*%
X304590000Y-241430000D03*
X304590000Y-238130000D03*
%TD*%
D19*
%TO.C,D74*%
X330600000Y-247300000D03*
X330600000Y-248800000D03*
X336050000Y-248800000D03*
X336050000Y-247300000D03*
%TD*%
D11*
%TO.C,C16*%
X529050000Y-267530000D03*
X529050000Y-266570000D03*
%TD*%
%TO.C,C24*%
X367050000Y-267530000D03*
X367050000Y-266570000D03*
%TD*%
D19*
%TO.C,D127*%
X237835000Y-323500000D03*
X237835000Y-325000000D03*
X243285000Y-325000000D03*
X243285000Y-323500000D03*
%TD*%
%TO.C,D94*%
X321325000Y-266300000D03*
X321325000Y-267800000D03*
X326775000Y-267800000D03*
X326775000Y-266300000D03*
%TD*%
D12*
%TO.C,D27*%
X466670000Y-260560000D03*
X466670000Y-257260000D03*
%TD*%
%TO.C,D50*%
X366450000Y-298427500D03*
X366450000Y-295127500D03*
%TD*%
D11*
%TO.C,C53*%
X381050000Y-306010000D03*
X381050000Y-305050000D03*
%TD*%
%TO.C,C41*%
X448050000Y-286530000D03*
X448050000Y-285570000D03*
%TD*%
D12*
%TO.C,D7*%
X361930000Y-241430000D03*
X361930000Y-238130000D03*
%TD*%
D19*
%TO.C,D117*%
X430685000Y-304450000D03*
X430685000Y-305950000D03*
X436135000Y-305950000D03*
X436135000Y-304450000D03*
%TD*%
%TO.C,D129*%
X285195000Y-323370000D03*
X285195000Y-324870000D03*
X290645000Y-324870000D03*
X290645000Y-323370000D03*
%TD*%
%TO.C,D118*%
X411765000Y-304270000D03*
X411765000Y-305770000D03*
X417215000Y-305770000D03*
X417215000Y-304270000D03*
%TD*%
%TO.C,D84*%
X521325000Y-266300000D03*
X521325000Y-267800000D03*
X526775000Y-267800000D03*
X526775000Y-266300000D03*
%TD*%
D12*
%TO.C,D32*%
X280700000Y-279847500D03*
X280700000Y-276547500D03*
%TD*%
D19*
%TO.C,D78*%
X407325000Y-247300000D03*
X407325000Y-248800000D03*
X412775000Y-248800000D03*
X412775000Y-247300000D03*
%TD*%
%TO.C,D104*%
X344945000Y-285380000D03*
X344945000Y-286880000D03*
X350395000Y-286880000D03*
X350395000Y-285380000D03*
%TD*%
D11*
%TO.C,C10*%
X415050000Y-248530000D03*
X415050000Y-247570000D03*
%TD*%
D19*
%TO.C,D92*%
X359325000Y-266300000D03*
X359325000Y-267800000D03*
X364775000Y-267800000D03*
X364775000Y-266300000D03*
%TD*%
%TO.C,D96*%
X283325000Y-266300000D03*
X283325000Y-267800000D03*
X288775000Y-267800000D03*
X288775000Y-266300000D03*
%TD*%
%TO.C,D124*%
X297585000Y-304390000D03*
X297585000Y-305890000D03*
X303035000Y-305890000D03*
X303035000Y-304390000D03*
%TD*%
%TO.C,D80*%
X445325000Y-247300000D03*
X445325000Y-248800000D03*
X450775000Y-248800000D03*
X450775000Y-247300000D03*
%TD*%
D11*
%TO.C,C13*%
X471050000Y-248050000D03*
X471050000Y-247090000D03*
%TD*%
D19*
%TO.C,D97*%
X264325000Y-266300000D03*
X264325000Y-267800000D03*
X269775000Y-267800000D03*
X269775000Y-266300000D03*
%TD*%
%TO.C,D105*%
X363915000Y-285360000D03*
X363915000Y-286860000D03*
X369365000Y-286860000D03*
X369365000Y-285360000D03*
%TD*%
D12*
%TO.C,D137*%
X392970000Y-226700000D03*
X392970000Y-223400000D03*
%TD*%
%TO.C,D67*%
X514260000Y-317420000D03*
X514260000Y-314120000D03*
%TD*%
D19*
%TO.C,D106*%
X382935000Y-285340000D03*
X382935000Y-286840000D03*
X388385000Y-286840000D03*
X388385000Y-285340000D03*
%TD*%
%TO.C,D70*%
X254325000Y-247300000D03*
X254325000Y-248800000D03*
X259775000Y-248800000D03*
X259775000Y-247300000D03*
%TD*%
D12*
%TO.C,D24*%
X409190000Y-260840000D03*
X409190000Y-257540000D03*
%TD*%
%TO.C,D2*%
X266640000Y-243007500D03*
X266640000Y-239707500D03*
%TD*%
D11*
%TO.C,C48*%
X483050000Y-306050000D03*
X483050000Y-305090000D03*
%TD*%
%TO.C,C43*%
X498050000Y-286530000D03*
X498050000Y-285570000D03*
%TD*%
D12*
%TO.C,D56*%
X488600000Y-298220000D03*
X488600000Y-294920000D03*
%TD*%
D11*
%TO.C,C29*%
X272050000Y-267530000D03*
X272050000Y-266570000D03*
%TD*%
D19*
%TO.C,D86*%
X473325000Y-266300000D03*
X473325000Y-267800000D03*
X478775000Y-267800000D03*
X478775000Y-266300000D03*
%TD*%
%TO.C,D115*%
X475535000Y-304450000D03*
X475535000Y-305950000D03*
X480985000Y-305950000D03*
X480985000Y-304450000D03*
%TD*%
%TO.C,D93*%
X340325000Y-266300000D03*
X340325000Y-267800000D03*
X345775000Y-267800000D03*
X345775000Y-266300000D03*
%TD*%
%TO.C,D107*%
X402135000Y-285360000D03*
X402135000Y-286860000D03*
X407585000Y-286860000D03*
X407585000Y-285360000D03*
%TD*%
D12*
%TO.C,D48*%
X328370000Y-297950000D03*
X328370000Y-294650000D03*
%TD*%
D19*
%TO.C,D108*%
X421355000Y-285340000D03*
X421355000Y-286840000D03*
X426805000Y-286840000D03*
X426805000Y-285340000D03*
%TD*%
%TO.C,D101*%
X288325000Y-285300000D03*
X288325000Y-286800000D03*
X293775000Y-286800000D03*
X293775000Y-285300000D03*
%TD*%
%TO.C,D90*%
X397050000Y-266550000D03*
X397050000Y-268050000D03*
X402500000Y-268050000D03*
X402500000Y-266550000D03*
%TD*%
D11*
%TO.C,C15*%
X529050000Y-248530000D03*
X529050000Y-247570000D03*
%TD*%
%TO.C,C45*%
X246050000Y-324530000D03*
X246050000Y-323570000D03*
%TD*%
D19*
%TO.C,D111*%
X489970000Y-285250000D03*
X489970000Y-286750000D03*
X495420000Y-286750000D03*
X495420000Y-285250000D03*
%TD*%
D12*
%TO.C,D47*%
X309480000Y-297890000D03*
X309480000Y-294590000D03*
%TD*%
%TO.C,D20*%
X333410000Y-260010000D03*
X333410000Y-256710000D03*
%TD*%
D19*
%TO.C,D133*%
X464065000Y-323470000D03*
X464065000Y-324970000D03*
X469515000Y-324970000D03*
X469515000Y-323470000D03*
%TD*%
D12*
%TO.C,D57*%
X514410000Y-299180000D03*
X514410000Y-295880000D03*
%TD*%
D11*
%TO.C,C52*%
X401050000Y-305530000D03*
X401050000Y-304570000D03*
%TD*%
%TO.C,C36*%
X353050000Y-286530000D03*
X353050000Y-285570000D03*
%TD*%
%TO.C,C21*%
X424050000Y-267530000D03*
X424050000Y-266570000D03*
%TD*%
%TO.C,C18*%
X481050000Y-267530000D03*
X481050000Y-266570000D03*
%TD*%
%TO.C,C35*%
X334050000Y-286530000D03*
X334050000Y-285570000D03*
%TD*%
D19*
%TO.C,D125*%
X278475000Y-304470000D03*
X278475000Y-305970000D03*
X283925000Y-305970000D03*
X283925000Y-304470000D03*
%TD*%
D12*
%TO.C,D13*%
X476180000Y-241887500D03*
X476180000Y-238587500D03*
%TD*%
D11*
%TO.C,C11*%
X434050000Y-248530000D03*
X434050000Y-247570000D03*
%TD*%
D12*
%TO.C,D38*%
X395120000Y-280290000D03*
X395120000Y-276990000D03*
%TD*%
%TO.C,D59*%
X250020000Y-317717500D03*
X250020000Y-314417500D03*
%TD*%
D11*
%TO.C,C31*%
X250050000Y-286530000D03*
X250050000Y-285570000D03*
%TD*%
%TO.C,C58*%
X286050000Y-306010000D03*
X286050000Y-305050000D03*
%TD*%
D19*
%TO.C,D126*%
X247235000Y-304210000D03*
X247235000Y-305710000D03*
X252685000Y-305710000D03*
X252685000Y-304210000D03*
%TD*%
%TO.C,D128*%
X261715000Y-323420000D03*
X261715000Y-324920000D03*
X267165000Y-324920000D03*
X267165000Y-323420000D03*
%TD*%
D11*
%TO.C,C27*%
X310050000Y-267530000D03*
X310050000Y-266570000D03*
%TD*%
D19*
%TO.C,D100*%
X268325000Y-285300000D03*
X268325000Y-286800000D03*
X273775000Y-286800000D03*
X273775000Y-285300000D03*
%TD*%
%TO.C,D69*%
X235325000Y-247300000D03*
X235325000Y-248800000D03*
X240775000Y-248800000D03*
X240775000Y-247300000D03*
%TD*%
D12*
%TO.C,D138*%
X388090000Y-226660000D03*
X388090000Y-223360000D03*
%TD*%
D11*
%TO.C,C14*%
X500050000Y-248530000D03*
X500050000Y-247570000D03*
%TD*%
D19*
%TO.C,D72*%
X292325000Y-247300000D03*
X292325000Y-248800000D03*
X297775000Y-248800000D03*
X297775000Y-247300000D03*
%TD*%
D12*
%TO.C,D34*%
X318960000Y-280180000D03*
X318960000Y-276880000D03*
%TD*%
D19*
%TO.C,D79*%
X426325000Y-247300000D03*
X426325000Y-248800000D03*
X431775000Y-248800000D03*
X431775000Y-247300000D03*
%TD*%
D12*
%TO.C,D31*%
X255210000Y-279900000D03*
X255210000Y-276600000D03*
%TD*%
%TO.C,D51*%
X385650000Y-298457500D03*
X385650000Y-295157500D03*
%TD*%
D11*
%TO.C,C63*%
X434050000Y-325010000D03*
X434050000Y-324050000D03*
%TD*%
%TO.C,C23*%
X386050000Y-268010000D03*
X386050000Y-267050000D03*
%TD*%
%TO.C,C6*%
X338050000Y-248530000D03*
X338050000Y-247570000D03*
%TD*%
D12*
%TO.C,D63*%
X437980000Y-317450000D03*
X437980000Y-314150000D03*
%TD*%
D11*
%TO.C,C60*%
X269050000Y-324530000D03*
X269050000Y-323570000D03*
%TD*%
D19*
%TO.C,D99*%
X242325000Y-285300000D03*
X242325000Y-286800000D03*
X247775000Y-286800000D03*
X247775000Y-285300000D03*
%TD*%
D11*
%TO.C,C65*%
X471600000Y-324580000D03*
X471600000Y-323620000D03*
%TD*%
D12*
%TO.C,D64*%
X456980000Y-317340000D03*
X456980000Y-314040000D03*
%TD*%
D19*
%TO.C,D81*%
X463325000Y-247300000D03*
X463325000Y-248800000D03*
X468775000Y-248800000D03*
X468775000Y-247300000D03*
%TD*%
D11*
%TO.C,C64*%
X453050000Y-324530000D03*
X453050000Y-323570000D03*
%TD*%
%TO.C,C68*%
X529050000Y-324530000D03*
X529050000Y-323570000D03*
%TD*%
D20*
%TO.C,D44*%
X522382500Y-289420000D03*
X525682500Y-289420000D03*
%TD*%
D12*
%TO.C,D45*%
X259930000Y-298340000D03*
X259930000Y-295040000D03*
%TD*%
D19*
%TO.C,D112*%
X521355000Y-285330000D03*
X521355000Y-286830000D03*
X526805000Y-286830000D03*
X526805000Y-285330000D03*
%TD*%
D12*
%TO.C,D9*%
X400150000Y-241830000D03*
X400150000Y-238530000D03*
%TD*%
D11*
%TO.C,C56*%
X324050000Y-305530000D03*
X324050000Y-304570000D03*
%TD*%
%TO.C,C30*%
X248050000Y-267530000D03*
X248050000Y-266570000D03*
%TD*%
%TO.C,C55*%
X343050000Y-305530000D03*
X343050000Y-304570000D03*
%TD*%
D21*
%TO.C,R2*%
X232150000Y-247815000D03*
X232150000Y-248505000D03*
%TD*%
D12*
%TO.C,D18*%
X295000000Y-261230000D03*
X295000000Y-257930000D03*
%TD*%
D11*
%TO.C,C51*%
X419050000Y-305530000D03*
X419050000Y-304570000D03*
%TD*%
D19*
%TO.C,D114*%
X502090000Y-304530000D03*
X502090000Y-306030000D03*
X507540000Y-306030000D03*
X507540000Y-304530000D03*
%TD*%
D12*
%TO.C,D55*%
X462150000Y-298590000D03*
X462150000Y-295290000D03*
%TD*%
D11*
%TO.C,C32*%
X276050000Y-286530000D03*
X276050000Y-285570000D03*
%TD*%
D19*
%TO.C,D136*%
X521125000Y-323420000D03*
X521125000Y-324920000D03*
X526575000Y-324920000D03*
X526575000Y-323420000D03*
%TD*%
D12*
%TO.C,D61*%
X298630000Y-317400000D03*
X298630000Y-314100000D03*
%TD*%
D22*
%TO.C,Q1*%
X389080000Y-230192500D03*
X390980000Y-230192500D03*
X390030000Y-232067500D03*
%TD*%
D19*
%TO.C,D73*%
X311325000Y-247300000D03*
X311325000Y-248800000D03*
X316775000Y-248800000D03*
X316775000Y-247300000D03*
%TD*%
D11*
%TO.C,C61*%
X293050000Y-324530000D03*
X293050000Y-323570000D03*
%TD*%
D19*
%TO.C,D89*%
X416325000Y-266300000D03*
X416325000Y-267800000D03*
X421775000Y-267800000D03*
X421775000Y-266300000D03*
%TD*%
%TO.C,D88*%
X435125000Y-266440000D03*
X435125000Y-267940000D03*
X440575000Y-267940000D03*
X440575000Y-266440000D03*
%TD*%
D12*
%TO.C,D6*%
X342690000Y-241497500D03*
X342690000Y-238197500D03*
%TD*%
D11*
%TO.C,C44*%
X529050000Y-286530000D03*
X529050000Y-285570000D03*
%TD*%
D12*
%TO.C,D26*%
X447890000Y-260970000D03*
X447890000Y-257670000D03*
%TD*%
D11*
%TO.C,C49*%
X457050000Y-305530000D03*
X457050000Y-304570000D03*
%TD*%
%TO.C,C47*%
X510050000Y-305530000D03*
X510050000Y-304570000D03*
%TD*%
D12*
%TO.C,D53*%
X423590000Y-298907500D03*
X423590000Y-295607500D03*
%TD*%
%TO.C,D14*%
X505180000Y-242367500D03*
X505180000Y-239067500D03*
%TD*%
%TO.C,D42*%
X471900000Y-279170000D03*
X471900000Y-275870000D03*
%TD*%
%TO.C,D40*%
X433260000Y-278910000D03*
X433260000Y-275610000D03*
%TD*%
D11*
%TO.C,C25*%
X348050000Y-267530000D03*
X348050000Y-266570000D03*
%TD*%
%TO.C,C62*%
X364050000Y-324530000D03*
X364050000Y-323570000D03*
%TD*%
%TO.C,C2*%
X262050000Y-248530000D03*
X262050000Y-247570000D03*
%TD*%
D19*
%TO.C,D95*%
X302325000Y-266300000D03*
X302325000Y-267800000D03*
X307775000Y-267800000D03*
X307775000Y-266300000D03*
%TD*%
%TO.C,D113*%
X521265000Y-304310000D03*
X521265000Y-305810000D03*
X526715000Y-305810000D03*
X526715000Y-304310000D03*
%TD*%
D12*
%TO.C,D1*%
X247530000Y-244340000D03*
X247530000Y-241040000D03*
%TD*%
%TO.C,D8*%
X380780000Y-240970000D03*
X380780000Y-237670000D03*
%TD*%
D19*
%TO.C,D122*%
X335725000Y-304630000D03*
X335725000Y-306130000D03*
X341175000Y-306130000D03*
X341175000Y-304630000D03*
%TD*%
D12*
%TO.C,D5*%
X323520000Y-241100000D03*
X323520000Y-237800000D03*
%TD*%
%TO.C,D37*%
X376070000Y-279707500D03*
X376070000Y-276407500D03*
%TD*%
%TO.C,D17*%
X276120000Y-260787500D03*
X276120000Y-257487500D03*
%TD*%
%TO.C,D60*%
X274220000Y-318080000D03*
X274220000Y-314780000D03*
%TD*%
D11*
%TO.C,C57*%
X305050000Y-305530000D03*
X305050000Y-304570000D03*
%TD*%
D12*
%TO.C,D3*%
X285760000Y-242447500D03*
X285760000Y-239147500D03*
%TD*%
D20*
%TO.C,D58*%
X522462500Y-308410000D03*
X525762500Y-308410000D03*
%TD*%
D12*
%TO.C,D62*%
X369160000Y-317910000D03*
X369160000Y-314610000D03*
%TD*%
D19*
%TO.C,D82*%
X492325000Y-247050000D03*
X492325000Y-248550000D03*
X497775000Y-248550000D03*
X497775000Y-247050000D03*
%TD*%
D12*
%TO.C,D54*%
X442760000Y-298377500D03*
X442760000Y-295077500D03*
%TD*%
D11*
%TO.C,C19*%
X462050000Y-267530000D03*
X462050000Y-266570000D03*
%TD*%
D12*
%TO.C,D21*%
X352470000Y-260390000D03*
X352470000Y-257090000D03*
%TD*%
D19*
%TO.C,D83*%
X521325000Y-247300000D03*
X521325000Y-248800000D03*
X526775000Y-248800000D03*
X526775000Y-247300000D03*
%TD*%
D12*
%TO.C,D23*%
X390240000Y-261037500D03*
X390240000Y-257737500D03*
%TD*%
D11*
%TO.C,C40*%
X429050000Y-286530000D03*
X429050000Y-285570000D03*
%TD*%
%TO.C,C28*%
X291050000Y-267530000D03*
X291050000Y-266570000D03*
%TD*%
M02*
