M48
; DRILL file KiCad 10.0.3 date 2026-05-24T23:07:08
; FORMAT={-:-/ absolute / metric / decimal}
; #@! TF.CreationDate,2026-05-24T23:07:08+05:30
; #@! TF.GenerationSoftware,Kicad,Pcbnew,10.0.3
; #@! TF.FileFunction,NonPlated,1,2,NPTH
FMAT,2
METRIC
; #@! TA.AperFunction,NonPlated,NPTH,ComponentDrill
T1C1.750
; #@! TA.AperFunction,NonPlated,NPTH,ComponentDrill
T2C2.200
; #@! TA.AperFunction,NonPlated,NPTH,ComponentDrill
T3C3.050
; #@! TA.AperFunction,NonPlated,NPTH,ComponentDrill
T4C4.000
%
G90
G05
T1
X233.045Y-242.887
X235.426Y-319.087
X237.807Y-261.938
X240.189Y-280.988
X243.205Y-242.887
X244.951Y-300.037
X245.586Y-319.087
X247.968Y-261.938
X250.349Y-280.988
X252.095Y-242.887
X255.111Y-300.037
X259.239Y-319.087
X261.62Y-261.938
X262.255Y-242.887
X266.382Y-280.988
X269.399Y-319.087
X271.145Y-242.887
X271.78Y-261.938
X275.907Y-300.037
X276.542Y-280.988
X280.67Y-261.938
X281.305Y-242.887
X283.051Y-319.087
X285.433Y-280.988
X286.067Y-300.037
X290.195Y-242.887
X290.83Y-261.938
X293.211Y-319.087
X294.957Y-300.037
X295.592Y-280.988
X299.72Y-261.938
X300.355Y-242.887
X304.482Y-280.988
X305.118Y-300.037
X309.245Y-242.887
X309.88Y-261.938
X314.007Y-300.037
X314.642Y-280.988
X318.77Y-261.938
X319.405Y-242.887
X323.532Y-280.988
X324.167Y-300.037
X328.295Y-242.887
X328.93Y-261.938
X333.058Y-300.037
X333.692Y-280.988
X337.82Y-261.938
X338.455Y-242.887
X342.582Y-280.988
X343.217Y-300.037
X347.345Y-242.887
X347.98Y-261.938
X352.107Y-300.037
X352.743Y-280.988
X354.489Y-319.087
X356.87Y-261.938
X357.505Y-242.887
X361.632Y-280.988
X362.267Y-300.037
X364.649Y-319.087
X366.395Y-242.887
X367.03Y-261.938
X371.157Y-300.037
X371.792Y-280.988
X375.92Y-261.938
X376.555Y-242.887
X380.683Y-280.988
X381.317Y-300.037
X385.445Y-242.887
X386.08Y-261.938
X390.207Y-300.037
X390.842Y-280.988
X394.97Y-261.938
X395.605Y-242.887
X399.732Y-280.988
X400.368Y-300.037
X404.495Y-242.887
X405.13Y-261.938
X409.257Y-300.037
X409.892Y-280.988
X414.02Y-261.938
X414.655Y-242.887
X418.782Y-280.988
X419.417Y-300.037
X423.545Y-242.887
X423.545Y-319.087
X424.18Y-261.938
X428.308Y-300.037
X428.942Y-280.988
X433.07Y-261.938
X433.705Y-242.887
X433.705Y-319.087
X437.832Y-280.988
X438.467Y-300.037
X442.595Y-242.887
X442.595Y-319.087
X443.23Y-261.938
X447.357Y-300.037
X447.993Y-280.988
X452.12Y-261.938
X452.755Y-242.887
X452.755Y-319.087
X456.882Y-280.988
X457.517Y-300.037
X461.645Y-242.887
X461.645Y-319.087
X462.28Y-261.938
X467.042Y-280.988
X471.17Y-261.938
X471.805Y-242.887
X471.805Y-319.087
X473.551Y-300.037
X480.695Y-319.087
X481.33Y-261.938
X483.711Y-300.037
X487.839Y-280.988
X490.22Y-242.887
X490.855Y-319.087
X494.982Y-261.938
X497.999Y-280.988
X499.745Y-300.037
X499.745Y-319.087
X500.38Y-242.887
X505.142Y-261.938
X509.905Y-300.037
X509.905Y-319.087
X518.795Y-242.887
X518.795Y-261.938
X518.795Y-280.988
X518.795Y-300.037
X518.795Y-319.087
X528.955Y-242.887
X528.955Y-261.938
X528.955Y-280.988
X528.955Y-300.037
X528.955Y-319.087
T2
X231.71Y-217.35
X231.75Y-294.04
X414.75Y-312.4
X529.98Y-217.26
T3
X234.315Y-240.347
X236.696Y-316.548
X239.077Y-259.397
X240.665Y-237.807
X241.459Y-278.447
X243.046Y-314.007
X245.427Y-256.858
X246.221Y-297.498
X247.809Y-275.907
X252.571Y-294.957
X253.365Y-240.347
X259.715Y-237.807
X260.509Y-316.548
X262.89Y-259.397
X266.859Y-314.007
X267.652Y-278.447
X269.24Y-256.858
X272.415Y-240.347
X274.002Y-275.907
X277.178Y-297.498
X278.765Y-237.807
X281.94Y-259.397
X283.527Y-294.957
X284.321Y-316.548
X286.702Y-278.447
X288.29Y-256.858
X290.671Y-314.007
X291.465Y-240.347
X293.053Y-275.907
X296.227Y-297.498
X297.815Y-237.807
X300.99Y-259.397
X302.577Y-294.957
X305.752Y-278.447
X307.34Y-256.858
X310.515Y-240.347
X312.102Y-275.907
X315.277Y-297.498
X316.865Y-237.807
X320.04Y-259.397
X321.627Y-294.957
X324.803Y-278.447
X326.39Y-256.858
X329.565Y-240.347
X331.152Y-275.907
X334.327Y-297.498
X335.915Y-237.807
X339.09Y-259.397
X340.678Y-294.957
X343.852Y-278.447
X345.44Y-256.858
X348.615Y-240.347
X350.202Y-275.907
X353.377Y-297.498
X354.965Y-237.807
X355.759Y-316.548
X358.14Y-259.397
X359.727Y-294.957
X362.109Y-314.007
X362.902Y-278.447
X364.49Y-256.858
X367.665Y-240.347
X369.252Y-275.907
X372.428Y-297.498
X374.015Y-237.807
X377.19Y-259.397
X378.777Y-294.957
X381.952Y-278.447
X383.54Y-256.858
X386.715Y-240.347
X388.303Y-275.907
X391.477Y-297.498
X393.065Y-237.807
X396.24Y-259.397
X397.827Y-294.957
X401.002Y-278.447
X402.59Y-256.858
X405.765Y-240.347
X407.352Y-275.907
X410.527Y-297.498
X412.115Y-237.807
X415.29Y-259.397
X416.877Y-294.957
X420.053Y-278.447
X421.64Y-256.858
X424.815Y-240.347
X424.815Y-316.548
X426.402Y-275.907
X429.577Y-297.498
X431.165Y-237.807
X431.165Y-314.007
X434.34Y-259.397
X435.927Y-294.957
X439.102Y-278.447
X440.69Y-256.858
X443.865Y-240.347
X443.865Y-316.548
X445.452Y-275.907
X448.627Y-297.498
X450.215Y-237.807
X450.215Y-314.007
X453.39Y-259.397
X454.977Y-294.957
X458.152Y-278.447
X459.74Y-256.858
X462.915Y-240.347
X462.915Y-316.548
X464.502Y-275.907
X469.265Y-237.807
X469.265Y-314.007
X472.44Y-259.397
X474.821Y-297.498
X478.79Y-256.858
X481.171Y-294.957
X481.965Y-316.548
X488.315Y-314.007
X489.109Y-278.447
X491.49Y-240.347
X495.459Y-275.907
X496.252Y-259.397
X497.84Y-237.807
X501.015Y-297.498
X501.015Y-316.548
X502.602Y-256.858
X507.365Y-294.957
X507.365Y-314.007
X520.065Y-240.347
X520.065Y-259.397
X520.065Y-278.447
X520.065Y-297.498
X520.065Y-316.548
X526.415Y-237.807
X526.415Y-256.858
X526.415Y-275.907
X526.415Y-294.957
X526.415Y-314.007
T4
X238.125Y-242.887
X240.506Y-319.087
X242.887Y-261.938
X245.269Y-280.988
X250.031Y-300.037
X257.175Y-242.887
X264.319Y-319.087
X266.7Y-261.938
X271.462Y-280.988
X276.225Y-242.887
X280.988Y-300.037
X285.75Y-261.938
X288.131Y-319.087
X290.512Y-280.988
X295.275Y-242.887
X300.037Y-300.037
X304.8Y-261.938
X309.562Y-280.988
X314.325Y-242.887
X319.087Y-300.037
X323.85Y-261.938
X328.613Y-280.988
X333.375Y-242.887
X338.137Y-300.037
X342.9Y-261.938
X347.662Y-280.988
X352.425Y-242.887
X357.188Y-300.037
X359.569Y-319.087
X361.95Y-261.938
X366.712Y-280.988
X371.475Y-242.887
X376.238Y-300.037
X381.0Y-261.938
X385.762Y-280.988
X390.525Y-242.887
X395.287Y-300.037
X400.05Y-261.938
X404.812Y-280.988
X409.575Y-242.887
X414.337Y-300.037
X419.1Y-261.938
X423.862Y-280.988
X428.625Y-242.887
X428.625Y-319.087
X433.387Y-300.037
X438.15Y-261.938
X442.912Y-280.988
X447.675Y-242.887
X447.675Y-319.087
X452.438Y-300.037
X457.2Y-261.938
X461.962Y-280.988
X466.725Y-242.887
X466.725Y-319.087
X476.25Y-261.938
X478.631Y-300.037
X485.775Y-319.087
X492.919Y-280.988
X495.3Y-242.887
X500.062Y-261.938
X504.825Y-300.037
X504.825Y-319.087
X523.875Y-242.887
X523.875Y-261.938
X523.875Y-280.988
X523.875Y-300.037
X523.875Y-319.087
M30
